# xmcd CD database file
#
# Track frame offsets:
#	150
#	12400
#	27393
#	49051
#	67782
#	80296
#	111430
#	134359
#	148050
#	166332
#	187384
#	208235
#	230550
#	249639
#	263786
#	284068
#	300521
#
# Disc length: 4230 seconds
#
# Revision: 3
# Processed by: cddbd v1.5.2PL0 Copyright (c) Steve Scherf et al.
# Submitted via: CDex 1.51
#
DISCID=03108411
DTITLE=Various Artist - Echuca Moama Winter Blues Compilation 2018
DYEAR=2018
DGENRE=Blues
TTITLE0=Bonnie Kay and the Bonafides -  Five Step Plan
TTITLE1=Collard Greens and Gravy  - Boogie
TTITLE2=Justin Yap Band - Long Way From Home
TTITLE3=Spoonful  - Cola Man
TTITLE4=The Swamp Stompers  - Sweet November
TTITLE5=The Turner Brown Band  - Hear Me Out (Before You Tune Me Out)
TTITLE6=Kings and Associates  -  Truth Be Told
TTITLE7=Werewolves of Melbourne  - Bad Connection
TTITLE8=Z-Star Delta  - The Bridge Hotel
TTITLE9=Chubby Rae and the Elevators - I Got A Fever
TTITLE10=Matty T Wall  - Sidewinder
TTITLE11=Pete Cornelius Band  - Drinking The Blues
TTITLE12=Rhythm X Revival  - Have You Ever Been So Lonely
TTITLE13=Dreamboogie - Something Shocking (Live)
TTITLE14=Ben J. Carter - No Friend Of Mine
TTITLE15=Steve Boyd's Rum Reverie  - Hey Head Honcho
TTITLE16=The Detonators - Sober and Straight
EXTD=YEAR: 2018
EXTT0=
EXTT1=
EXTT2=
EXTT3=
EXTT4=
EXTT5=
EXTT6=
EXTT7=
EXTT8=
EXTT9=
EXTT10=
EXTT11=
EXTT12=
EXTT13=
EXTT14=
EXTT15=
EXTT16=
PLAYORDER=
